# xmcd
#
# Track frame offsets:
#	150
#	13354
#	29177
#	46342
#	66445
#	79594
#	101008
#	115912
#	132744
#	149602
#
# Disc length: 2174 seconds
#
# Revision: 1
# Processed by: cddbd v1.5.2PL0 Copyright (c) Steve Scherf et al.
# Submitted via: audiograbber 1.83.01
#
DISCID=9c087c0a
DTITLE=Honoré Godbout - Sans trompette ni tambour
DYEAR=2007
DGENRE=country folk
TTITLE0=C`EST COMME ÇA LA VIE
TTITLE1=SALUT ST-LOUIS
TTITLE2=LE MUSICIEN
TTITLE3=PAR AMOUR OU PAR AMITIÉ
TTITLE4=LA RADOTEUSE
TTITLE5=SANS TROMPETTE NI TAMBOUR
TTITLE6=TA CRISE DE JALOUSIE
TTITLE7=Y`A TROP D`AMOUR AUTOUR DE MOI
TTITLE8=L`AMOUR C`EST LA RICHESSE
TTITLE9=J`AI L`GOÛT D`TRIPPER
EXTD=Enregistré au studio Denis Champourx du 21 au 28 mai 2007, \nProduit par: 
EXTD=Les Productions Honoré Godbout enrg.
EXTT0=
EXTT1=
EXTT2=
EXTT3=
EXTT4=
EXTT5=
EXTT6=
EXTT7=
EXTT8=
EXTT9=
PLAYORDER=
